# xmcd CD database file
#
# Track frame offsets:
#	225
#	14775
#	29175
#	50550
#	61175
#	76450
#	92537
#	106080
#	124125
#	134045
#	150400
#	158250
#	172825
#	185862
#	197262
#	214100
#	228525
#	243675
#	255462
#	271200
#	279225
#	297750
#	312900
#
# Disc length: 4309 seconds
#
# Revision: 0
# Processed by: cddbd v1.5.1PL2 Copyright (c) Steve Scherf et al.
# Submitted via: CDex 1.51
#
DISCID=4210d217
DTITLE=Rita Reys - First Lady of Jazz 2
DYEAR=1995
DGENRE=Jazz
TTITLE0=No moon at all
TTITLE1=How deep is the ocean
TTITLE2=Willow weep for me
TTITLE3=But not for me
TTITLE4=Thou swell
TTITLE5=I get a kick out of you
TTITLE6=I remember Clifford
TTITLE7=Speak low
TTITLE8=Get out of town
TTITLE9=Sophisticated lady
TTITLE10=The way you look tonight
TTITLE11=Solitude
TTITLE12=Moonglow
TTITLE13=Bluesette
TTITLE14=Summertime
TTITLE15=Spring can really hang you up the most
TTITLE16=Waltz for Debby
TTITLE17=Wives and lovers
TTITLE18=You don't know what love is
TTITLE19=If I were a bell
TTITLE20=A day in the life of a fool
TTITLE21=More than you know
TTITLE22=You'd better love me
EXTD=YEAR: 1995
EXTT0=
EXTT1=
EXTT2=
EXTT3=
EXTT4=
EXTT5=
EXTT6=
EXTT7=
EXTT8=
EXTT9=
EXTT10=
EXTT11=
EXTT12=
EXTT13=
EXTT14=
EXTT15=
EXTT16=
EXTT17=
EXTT18=
EXTT19=
EXTT20=
EXTT21=
EXTT22=
PLAYORDER=
